<svg width="1440" height="136" viewBox="0 0 1440 136" fill="none" xmlns="http://www.w3.org/2000/svg">
<path d="M-3.43323e-05 23.0001H1440V114H-3.43323e-05V23.0001Z" fill="#F9D85F"/>
<path d="M56.3986 2.42934C59.1631 -0.512908 63.8368 -0.512906 66.6014 2.42935L86.3589 23.4568C90.5577 27.9255 87.3894 35.2501 81.2575 35.2501H41.7424C35.6106 35.2501 32.4422 27.9255 36.641 23.4568L56.3986 2.42934Z" fill="#F9D85F"/>
<path d="M7.39858 2.42934C10.1631 -0.512908 14.8368 -0.512906 17.6014 2.42935L37.3589 23.4568C41.5577 27.9255 38.3894 35.2501 32.2575 35.2501H-7.2576C-13.3894 35.2501 -16.5578 27.9255 -12.359 23.4568L7.39858 2.42934Z" fill="#F9D85F"/>
<path d="M446.399 2.42934C449.163 -0.512908 453.837 -0.512906 456.601 2.42935L476.359 23.4568C480.558 27.9255 477.389 35.2501 471.258 35.2501H431.742C425.611 35.2501 422.442 27.9255 426.641 23.4568L446.399 2.42934Z" fill="#F9D85F"/>
<path d="M836.399 2.42934C839.163 -0.512908 843.837 -0.512906 846.601 2.42935L866.359 23.4568C870.558 27.9255 867.389 35.2501 861.258 35.2501H821.742C815.611 35.2501 812.442 27.9255 816.641 23.4568L836.399 2.42934Z" fill="#F9D85F"/>
<path d="M1226.4 2.42934C1229.16 -0.512908 1233.84 -0.512906 1236.6 2.42935L1256.36 23.4568C1260.56 27.9255 1257.39 35.2501 1251.26 35.2501H1211.74C1205.61 35.2501 1202.44 27.9255 1206.64 23.4568L1226.4 2.42934Z" fill="#F9D85F"/>
<path d="M250.399 2.42934C253.163 -0.512908 257.837 -0.512906 260.601 2.42935L280.359 23.4568C284.558 27.9255 281.389 35.2501 275.258 35.2501H235.742C229.611 35.2501 226.442 27.9255 230.641 23.4568L250.399 2.42934Z" fill="#F9D85F"/>
<path d="M640.399 2.42934C643.163 -0.512908 647.837 -0.512906 650.601 2.42935L670.359 23.4568C674.558 27.9255 671.389 35.2501 665.258 35.2501H625.742C619.611 35.2501 616.442 27.9255 620.641 23.4568L640.399 2.42934Z" fill="#F9D85F"/>
<path d="M1030.4 2.42934C1033.16 -0.512908 1037.84 -0.512906 1040.6 2.42935L1060.36 23.4568C1064.56 27.9255 1061.39 35.2501 1055.26 35.2501H1015.74C1009.61 35.2501 1006.44 27.9255 1010.64 23.4568L1030.4 2.42934Z" fill="#F9D85F"/>
<path d="M1420.4 2.42934C1423.16 -0.512908 1427.84 -0.512906 1430.6 2.42935L1450.36 23.4568C1454.56 27.9255 1451.39 35.2501 1445.26 35.2501H1405.74C1399.61 35.2501 1396.44 27.9255 1400.64 23.4568L1420.4 2.42934Z" fill="#F9D85F"/>
<path d="M154.399 2.42934C157.163 -0.512908 161.837 -0.512906 164.601 2.42935L184.359 23.4568C188.558 27.9255 185.389 35.2501 179.258 35.2501H139.742C133.611 35.2501 130.442 27.9255 134.641 23.4568L154.399 2.42934Z" fill="#F9D85F"/>
<path d="M544.399 2.42934C547.163 -0.512908 551.837 -0.512906 554.601 2.42935L574.359 23.4568C578.558 27.9255 575.389 35.2501 569.258 35.2501H529.742C523.611 35.2501 520.442 27.9255 524.641 23.4568L544.399 2.42934Z" fill="#F9D85F"/>
<path d="M934.399 2.42934C937.163 -0.512908 941.837 -0.512906 944.601 2.42935L964.359 23.4568C968.558 27.9255 965.389 35.2501 959.258 35.2501H919.742C913.611 35.2501 910.442 27.9255 914.641 23.4568L934.399 2.42934Z" fill="#F9D85F"/>
<path d="M1324.4 2.42934C1327.16 -0.512908 1331.84 -0.512906 1334.6 2.42935L1354.36 23.4568C1358.56 27.9255 1355.39 35.2501 1349.26 35.2501H1309.74C1303.61 35.2501 1300.44 27.9255 1304.64 23.4568L1324.4 2.42934Z" fill="#F9D85F"/>
<path d="M348.399 2.42934C351.163 -0.512908 355.837 -0.512906 358.601 2.42935L378.359 23.4568C382.558 27.9255 379.389 35.2501 373.258 35.2501H333.742C327.611 35.2501 324.442 27.9255 328.641 23.4568L348.399 2.42934Z" fill="#F9D85F"/>
<path d="M738.399 2.42934C741.163 -0.512908 745.837 -0.512906 748.601 2.42935L768.359 23.4568C772.558 27.9255 769.389 35.2501 763.258 35.2501H723.742C717.611 35.2501 714.442 27.9255 718.641 23.4568L738.399 2.42934Z" fill="#F9D85F"/>
<path d="M1128.4 2.42934C1131.16 -0.512908 1135.84 -0.512906 1138.6 2.42935L1158.36 23.4568C1162.56 27.9255 1159.39 35.2501 1153.26 35.2501H1113.74C1107.61 35.2501 1104.44 27.9255 1108.64 23.4568L1128.4 2.42934Z" fill="#F9D85F"/>
<path d="M105.399 2.42934C108.163 -0.512908 112.837 -0.512906 115.601 2.42935L135.359 23.4568C139.558 27.9255 136.389 35.2501 130.258 35.2501H90.7424C84.6106 35.2501 81.4422 27.9255 85.641 23.4568L105.399 2.42934Z" fill="#F9D85F"/>
<path d="M495.399 2.42934C498.163 -0.512908 502.837 -0.512906 505.601 2.42935L525.359 23.4568C529.558 27.9255 526.389 35.2501 520.258 35.2501H480.742C474.611 35.2501 471.442 27.9255 475.641 23.4568L495.399 2.42934Z" fill="#F9D85F"/>
<path d="M885.399 2.42934C888.163 -0.512908 892.837 -0.512906 895.601 2.42935L915.359 23.4568C919.558 27.9255 916.389 35.2501 910.258 35.2501H870.742C864.611 35.2501 861.442 27.9255 865.641 23.4568L885.399 2.42934Z" fill="#F9D85F"/>
<path d="M1275.4 2.42934C1278.16 -0.512908 1282.84 -0.512906 1285.6 2.42935L1305.36 23.4568C1309.56 27.9255 1306.39 35.2501 1300.26 35.2501H1260.74C1254.61 35.2501 1251.44 27.9255 1255.64 23.4568L1275.4 2.42934Z" fill="#F9D85F"/>
<path d="M299.399 2.42934C302.163 -0.512908 306.837 -0.512906 309.601 2.42935L329.359 23.4568C333.558 27.9255 330.389 35.2501 324.258 35.2501H284.742C278.611 35.2501 275.442 27.9255 279.641 23.4568L299.399 2.42934Z" fill="#F9D85F"/>
<path d="M689.399 2.42934C692.163 -0.512908 696.837 -0.512906 699.601 2.42935L719.359 23.4568C723.558 27.9255 720.389 35.2501 714.258 35.2501H674.742C668.611 35.2501 665.442 27.9255 669.641 23.4568L689.399 2.42934Z" fill="#F9D85F"/>
<path d="M1079.4 2.42934C1082.16 -0.512908 1086.84 -0.512906 1089.6 2.42935L1109.36 23.4568C1113.56 27.9255 1110.39 35.2501 1104.26 35.2501H1064.74C1058.61 35.2501 1055.44 27.9255 1059.64 23.4568L1079.4 2.42934Z" fill="#F9D85F"/>
<path d="M203.399 2.42934C206.163 -0.512908 210.837 -0.512906 213.601 2.42935L233.359 23.4568C237.558 27.9255 234.389 35.2501 228.258 35.2501H188.742C182.611 35.2501 179.442 27.9255 183.641 23.4568L203.399 2.42934Z" fill="#F9D85F"/>
<path d="M593.399 2.42934C596.163 -0.512908 600.837 -0.512906 603.601 2.42935L623.359 23.4568C627.558 27.9255 624.389 35.2501 618.258 35.2501H578.742C572.611 35.2501 569.442 27.9255 573.641 23.4568L593.399 2.42934Z" fill="#F9D85F"/>
<path d="M983.399 2.42934C986.163 -0.512908 990.837 -0.512906 993.601 2.42935L1013.36 23.4568C1017.56 27.9255 1014.39 35.2501 1008.26 35.2501H968.742C962.611 35.2501 959.442 27.9255 963.641 23.4568L983.399 2.42934Z" fill="#F9D85F"/>
<path d="M1373.4 2.42934C1376.16 -0.512908 1380.84 -0.512906 1383.6 2.42935L1403.36 23.4568C1407.56 27.9255 1404.39 35.2501 1398.26 35.2501H1358.74C1352.61 35.2501 1349.44 27.9255 1353.64 23.4568L1373.4 2.42934Z" fill="#F9D85F"/>
<path d="M397.399 2.42934C400.163 -0.512908 404.837 -0.512906 407.601 2.42935L427.359 23.4568C431.558 27.9255 428.389 35.2501 422.258 35.2501H382.742C376.611 35.2501 373.442 27.9255 377.641 23.4568L397.399 2.42934Z" fill="#F9D85F"/>
<path d="M787.399 2.42934C790.163 -0.512908 794.837 -0.512906 797.601 2.42935L817.359 23.4568C821.558 27.9255 818.389 35.2501 812.258 35.2501H772.742C766.611 35.2501 763.442 27.9255 767.641 23.4568L787.399 2.42934Z" fill="#F9D85F"/>
<path d="M1177.4 2.42934C1180.16 -0.512908 1184.84 -0.512906 1187.6 2.42935L1207.36 23.4568C1211.56 27.9255 1208.39 35.2501 1202.26 35.2501H1162.74C1156.61 35.2501 1153.44 27.9255 1157.64 23.4568L1177.4 2.42934Z" fill="#F9D85F"/>
<path d="M94.3986 133.571C97.1631 136.513 101.837 136.513 104.601 133.571L124.359 112.543C128.558 108.075 125.389 100.75 119.258 100.75H79.7424C73.6106 100.75 70.4422 108.075 74.641 112.543L94.3986 133.571Z" fill="#F9D85F"/>
<path d="M45.3986 133.571C48.1631 136.513 52.8368 136.513 55.6014 133.571L75.3589 112.543C79.5577 108.075 76.3894 100.75 70.2575 100.75H30.7424C24.6106 100.75 21.4422 108.075 25.641 112.543L45.3986 133.571Z" fill="#F9D85F"/>
<path d="M-3.60142 133.571C-0.836857 136.513 3.83679 136.513 6.60135 133.571L26.3589 112.543C30.5577 108.075 27.3894 100.75 21.2575 100.75H-18.2576C-24.3894 100.75 -27.5578 108.075 -23.359 112.543L-3.60142 133.571Z" fill="#F9D85F"/>
<path d="M484.399 133.571C487.163 136.513 491.837 136.513 494.601 133.571L514.359 112.543C518.558 108.075 515.389 100.75 509.258 100.75H469.742C463.611 100.75 460.442 108.075 464.641 112.543L484.399 133.571Z" fill="#F9D85F"/>
<path d="M874.399 133.571C877.163 136.513 881.837 136.513 884.601 133.571L904.359 112.543C908.558 108.075 905.389 100.75 899.258 100.75H859.742C853.611 100.75 850.442 108.075 854.641 112.543L874.399 133.571Z" fill="#F9D85F"/>
<path d="M1264.4 133.571C1267.16 136.513 1271.84 136.513 1274.6 133.571L1294.36 112.543C1298.56 108.075 1295.39 100.75 1289.26 100.75H1249.74C1243.61 100.75 1240.44 108.075 1244.64 112.543L1264.4 133.571Z" fill="#F9D85F"/>
<path d="M288.399 133.571C291.163 136.513 295.837 136.513 298.601 133.571L318.359 112.543C322.558 108.075 319.389 100.75 313.258 100.75H273.742C267.611 100.75 264.442 108.075 268.641 112.543L288.399 133.571Z" fill="#F9D85F"/>
<path d="M678.399 133.571C681.163 136.513 685.837 136.513 688.601 133.571L708.359 112.543C712.558 108.075 709.389 100.75 703.258 100.75H663.742C657.611 100.75 654.442 108.075 658.641 112.543L678.399 133.571Z" fill="#F9D85F"/>
<path d="M1068.4 133.571C1071.16 136.513 1075.84 136.513 1078.6 133.571L1098.36 112.543C1102.56 108.075 1099.39 100.75 1093.26 100.75H1053.74C1047.61 100.75 1044.44 108.075 1048.64 112.543L1068.4 133.571Z" fill="#F9D85F"/>
<path d="M1458.4 133.571C1461.16 136.513 1465.84 136.513 1468.6 133.571L1488.36 112.543C1492.56 108.075 1489.39 100.75 1483.26 100.75H1443.74C1437.61 100.75 1434.44 108.075 1438.64 112.543L1458.4 133.571Z" fill="#F9D85F"/>
<path d="M192.399 133.571C195.163 136.513 199.837 136.513 202.601 133.571L222.359 112.543C226.558 108.075 223.389 100.75 217.258 100.75H177.742C171.611 100.75 168.442 108.075 172.641 112.543L192.399 133.571Z" fill="#F9D85F"/>
<path d="M582.399 133.571C585.163 136.513 589.837 136.513 592.601 133.571L612.359 112.543C616.558 108.075 613.389 100.75 607.258 100.75H567.742C561.611 100.75 558.442 108.075 562.641 112.543L582.399 133.571Z" fill="#F9D85F"/>
<path d="M972.399 133.571C975.163 136.513 979.837 136.513 982.601 133.571L1002.36 112.543C1006.56 108.075 1003.39 100.75 997.258 100.75H957.742C951.611 100.75 948.442 108.075 952.641 112.543L972.399 133.571Z" fill="#F9D85F"/>
<path d="M1362.4 133.571C1365.16 136.513 1369.84 136.513 1372.6 133.571L1392.36 112.543C1396.56 108.075 1393.39 100.75 1387.26 100.75H1347.74C1341.61 100.75 1338.44 108.075 1342.64 112.543L1362.4 133.571Z" fill="#F9D85F"/>
<path d="M386.399 133.571C389.163 136.513 393.837 136.513 396.601 133.571L416.359 112.543C420.558 108.075 417.389 100.75 411.258 100.75H371.742C365.611 100.75 362.442 108.075 366.641 112.543L386.399 133.571Z" fill="#F9D85F"/>
<path d="M776.399 133.571C779.163 136.513 783.837 136.513 786.601 133.571L806.359 112.543C810.558 108.075 807.389 100.75 801.258 100.75H761.742C755.611 100.75 752.442 108.075 756.641 112.543L776.399 133.571Z" fill="#F9D85F"/>
<path d="M1166.4 133.571C1169.16 136.513 1173.84 136.513 1176.6 133.571L1196.36 112.543C1200.56 108.075 1197.39 100.75 1191.26 100.75H1151.74C1145.61 100.75 1142.44 108.075 1146.64 112.543L1166.4 133.571Z" fill="#F9D85F"/>
<path d="M143.399 133.571C146.163 136.513 150.837 136.513 153.601 133.571L173.359 112.543C177.558 108.075 174.389 100.75 168.258 100.75H128.742C122.611 100.75 119.442 108.075 123.641 112.543L143.399 133.571Z" fill="#F9D85F"/>
<path d="M533.399 133.571C536.163 136.513 540.837 136.513 543.601 133.571L563.359 112.543C567.558 108.075 564.389 100.75 558.258 100.75H518.742C512.611 100.75 509.442 108.075 513.641 112.543L533.399 133.571Z" fill="#F9D85F"/>
<path d="M923.399 133.571C926.163 136.513 930.837 136.513 933.601 133.571L953.359 112.543C957.558 108.075 954.389 100.75 948.258 100.75H908.742C902.611 100.75 899.442 108.075 903.641 112.543L923.399 133.571Z" fill="#F9D85F"/>
<path d="M1313.4 133.571C1316.16 136.513 1320.84 136.513 1323.6 133.571L1343.36 112.543C1347.56 108.075 1344.39 100.75 1338.26 100.75H1298.74C1292.61 100.75 1289.44 108.075 1293.64 112.543L1313.4 133.571Z" fill="#F9D85F"/>
<path d="M337.399 133.571C340.163 136.513 344.837 136.513 347.601 133.571L367.359 112.543C371.558 108.075 368.389 100.75 362.258 100.75H322.742C316.611 100.75 313.442 108.075 317.641 112.543L337.399 133.571Z" fill="#F9D85F"/>
<path d="M727.399 133.571C730.163 136.513 734.837 136.513 737.601 133.571L757.359 112.543C761.558 108.075 758.389 100.75 752.258 100.75H712.742C706.611 100.75 703.442 108.075 707.641 112.543L727.399 133.571Z" fill="#F9D85F"/>
<path d="M1117.4 133.571C1120.16 136.513 1124.84 136.513 1127.6 133.571L1147.36 112.543C1151.56 108.075 1148.39 100.75 1142.26 100.75H1102.74C1096.61 100.75 1093.44 108.075 1097.64 112.543L1117.4 133.571Z" fill="#F9D85F"/>
<path d="M241.399 133.571C244.163 136.513 248.837 136.513 251.601 133.571L271.359 112.543C275.558 108.075 272.389 100.75 266.258 100.75H226.742C220.611 100.75 217.442 108.075 221.641 112.543L241.399 133.571Z" fill="#F9D85F"/>
<path d="M631.399 133.571C634.163 136.513 638.837 136.513 641.601 133.571L661.359 112.543C665.558 108.075 662.389 100.75 656.258 100.75H616.742C610.611 100.75 607.442 108.075 611.641 112.543L631.399 133.571Z" fill="#F9D85F"/>
<path d="M1021.4 133.571C1024.16 136.513 1028.84 136.513 1031.6 133.571L1051.36 112.543C1055.56 108.075 1052.39 100.75 1046.26 100.75H1006.74C1000.61 100.75 997.442 108.075 1001.64 112.543L1021.4 133.571Z" fill="#F9D85F"/>
<path d="M1411.4 133.571C1414.16 136.513 1418.84 136.513 1421.6 133.571L1441.36 112.543C1445.56 108.075 1442.39 100.75 1436.26 100.75H1396.74C1390.61 100.75 1387.44 108.075 1391.64 112.543L1411.4 133.571Z" fill="#F9D85F"/>
<path d="M435.399 133.571C438.163 136.513 442.837 136.513 445.601 133.571L465.359 112.543C469.558 108.075 466.389 100.75 460.258 100.75H420.742C414.611 100.75 411.442 108.075 415.641 112.543L435.399 133.571Z" fill="#F9D85F"/>
<path d="M825.399 133.571C828.163 136.513 832.837 136.513 835.601 133.571L855.359 112.543C859.558 108.075 856.389 100.75 850.258 100.75H810.742C804.611 100.75 801.442 108.075 805.641 112.543L825.399 133.571Z" fill="#F9D85F"/>
<path d="M1215.4 133.571C1218.16 136.513 1222.84 136.513 1225.6 133.571L1245.36 112.543C1249.56 108.075 1246.39 100.75 1240.26 100.75H1200.74C1194.61 100.75 1191.44 108.075 1195.64 112.543L1215.4 133.571Z" fill="#F9D85F"/>
</svg>
